<svg width="29" height="29" viewBox="0 0 29 29" fill="none" xmlns="http://www.w3.org/2000/svg">
<g id="image" clip-path="url(#clip0_478_1268)">
<g id="ICON/24/&#195;&#165;&#194;&#142;&#194;&#134;&#195;&#165;&#194;&#143;&#194;&#178;&#195;&#168;&#194;&#174;&#194;&#176;&#195;&#165;&#194;&#189;&#194;&#149;">
<path id="&#195;&#167;&#194;&#159;&#194;&#169;&#195;&#165;&#194;&#189;&#194;&#162;" opacity="0.01" d="M29 0H0V29H29V0Z" fill="#1A1A1A"/>
<g id="&#195;&#165;&#194;&#141;&#194;&#160;&#195;&#164;&#194;&#189;&#194;&#141;" opacity="0.01">
<path id="Rectangle 3 Copy 2" opacity="0.3" d="M4.83325 4.83337H24.1666V24.1667H4.83325V4.83337Z" fill="#D8D8D8" stroke="#979797" stroke-width="8"/>
<path id="Rectangle Copy 2" opacity="0.3" d="M25.7384 3.21423H3.26147V25.7859H25.7384V3.21423Z" stroke="#979797"/>
<path id="Rectangle Copy 2_2" opacity="0.3" d="M24.2411 1.76416H4.75879V27.2358H24.2411V1.76416Z" stroke="#979797"/>
<path id="Rectangle Copy 2_3" opacity="0.3" d="M27.2358 4.8092H1.76416V24.1909H27.2358V4.8092Z" stroke="#979797"/>
<path id="Oval 2" opacity="0.3" d="M14.5 27.2358C21.5338 27.2358 27.2358 21.5338 27.2358 14.5C27.2358 7.46619 21.5338 1.76416 14.5 1.76416C7.46619 1.76416 1.76416 7.46619 1.76416 14.5C1.76416 21.5338 7.46619 27.2358 14.5 27.2358Z" stroke="#979797"/>
</g>
<g id="&#195;&#167;&#194;&#188;&#194;&#150;&#195;&#167;&#194;&#187;&#194;&#132; 4">
<path id="&#195;&#168;&#194;&#183;&#194;&#175;&#195;&#165;&#194;&#190;&#194;&#132; 2" d="M11.4792 9.66675V19.3334" stroke="#4C93FF" stroke-width="1.5" stroke-linecap="round" stroke-linejoin="round"/>
<path id="&#195;&#168;&#194;&#183;&#194;&#175;&#195;&#165;&#194;&#190;&#194;&#132; 3" d="M15.1043 14.5H7.85425" stroke="#4C93FF" stroke-width="1.5" stroke-linecap="round" stroke-linejoin="round"/>
<path id="&#195;&#167;&#194;&#159;&#194;&#169;&#195;&#165;&#194;&#189;&#194;&#162;_2" d="M19.3335 4.83337H3.62516C2.29047 4.83337 1.2085 5.91535 1.2085 7.25004V21.75C1.2085 23.0848 2.29047 24.1667 3.62516 24.1667H19.3335C20.6681 24.1667 21.7502 23.0848 21.7502 21.75V7.25004C21.7502 5.91535 20.6681 4.83337 19.3335 4.83337Z" stroke="#333333" stroke-width="1.5" stroke-linejoin="round"/>
<path id="&#195;&#167;&#194;&#159;&#194;&#169;&#195;&#165;&#194;&#189;&#194;&#162;_3" d="M26.9785 9.96701L22.1451 11.7516C21.9078 11.8393 21.7502 12.0654 21.7502 12.3184V16.6816C21.7502 16.9346 21.9078 17.1608 22.1451 17.2484L26.9785 19.0329C27.373 19.1787 27.7919 18.8867 27.7919 18.4662V10.5338C27.7919 10.1132 27.373 9.82135 26.9785 9.96701Z" stroke="#333333" stroke-width="1.5" stroke-linejoin="round"/>
</g>
</g>
</g>
<defs>
<clipPath id="clip0_478_1268">
<rect width="29" height="29" fill="white"/>
</clipPath>
</defs>
</svg>
