<svg width="24" height="24" viewBox="0 0 24 24" fill="none" xmlns="http://www.w3.org/2000/svg">
<g id="image" clip-path="url(#clip0_478_1225)">
<g id="Anime">
<g id="Anime_PC_&#228;&#186;&#164;&#228;&#186;&#146;&#232;&#175;&#180;&#230;&#152;&#142;">
<g id="&#231;&#188;&#150;&#231;&#187;&#132;-52">
<g id="&#231;&#188;&#150;&#231;&#187;&#132;-33&#229;&#164;&#135;&#228;&#187;&#189;">
<g id="Group">
<g id="ICON/24/&#229;&#177;&#149;&#229;&#188;&#128;">
<path id="&#231;&#159;&#169;&#229;&#189;&#162;" d="M20.25 5H3.75C3.33579 5 3 5.33579 3 5.75C3 6.16421 3.33579 6.5 3.75 6.5H20.25C20.6642 6.5 21 6.16421 21 5.75C21 5.33579 20.6642 5 20.25 5Z" fill="#333333"/>
<path id="&#231;&#159;&#169;&#229;&#189;&#162;&#229;&#164;&#135;&#228;&#187;&#189;-58" d="M20.25 11H3.75C3.33579 11 3 11.3358 3 11.75C3 12.1642 3.33579 12.5 3.75 12.5H20.25C20.6642 12.5 21 12.1642 21 11.75C21 11.3358 20.6642 11 20.25 11Z" fill="#333333"/>
<path id="&#231;&#159;&#169;&#229;&#189;&#162;&#229;&#164;&#135;&#228;&#187;&#189;-59" d="M20.25 17.5H3.75C3.33579 17.5 3 17.8358 3 18.25C3 18.6642 3.33579 19 3.75 19H20.25C20.6642 19 21 18.6642 21 18.25C21 17.8358 20.6642 17.5 20.25 17.5Z" fill="#333333"/>
</g>
</g>
</g>
</g>
</g>
</g>
</g>
<defs>
<clipPath id="clip0_478_1225">
<rect width="24" height="24" fill="white"/>
</clipPath>
</defs>
</svg>
