<svg width="32" height="32" viewBox="0 0 32 32" fill="none" xmlns="http://www.w3.org/2000/svg">
<g id="image" clip-path="url(#clip0_478_1254)">
<g id="Anime">
<g id="Anime_H5_&#228;&#186;&#164;&#228;&#186;&#146;&#232;&#175;&#180;&#230;&#152;&#142;-">
<g id="ICON/24/&#230;&#156;&#170;&#231;&#153;&#187;&#229;&#189;&#149;&#229;&#164;&#180;&#229;&#131;&#143;">
<path id="&#230;&#164;&#173;&#229;&#156;&#134;&#229;&#189;&#162;&#229;&#164;&#135;&#228;&#187;&#189;" d="M15.9999 32C24.8364 32 31.9999 24.8366 31.9999 16C31.9999 7.16344 24.8364 0 15.9999 0C7.16332 0 -0.00012207 7.16344 -0.00012207 16C-0.00012207 24.8366 7.16332 32 15.9999 32Z" fill="#E6E6E6"/>
<path id="&#230;&#164;&#173;&#229;&#156;&#134;&#229;&#189;&#162;" d="M15.9999 18C19.3136 18 21.9999 15.3137 21.9999 12C21.9999 8.68629 19.3136 6 15.9999 6C12.6862 6 9.99988 8.68629 9.99988 12C9.99988 15.3137 12.6862 18 15.9999 18Z" fill="white" stroke="#CCCCCC" stroke-width="1.33333"/>
<path id="&#229;&#189;&#162;&#231;&#138;&#182;&#231;&#187;&#147;&#229;&#144;&#136;" fill-rule="evenodd" clip-rule="evenodd" d="M15.9999 18C18.7042 18 21.1873 18.9471 23.1355 20.5279C25.034 22.0683 26.4249 24.2102 27.0169 26.6641C24.2293 29.5437 20.3236 31.3333 15.9999 31.3333C11.6759 31.3333 7.76994 29.5435 4.98291 26.6641C5.57514 24.2104 6.96588 22.0685 8.86413 20.5281C10.8123 18.9471 13.2955 18 15.9999 18Z" fill="white" stroke="#CCCCCC" stroke-width="1.33333"/>
<path id="&#230;&#164;&#173;&#229;&#156;&#134;&#229;&#189;&#162;&#229;&#164;&#135;&#228;&#187;&#189;_2" d="M15.9998 31.3333C24.4682 31.3333 31.3332 24.4683 31.3332 16C31.3332 7.53159 24.4682 0.666626 15.9998 0.666626C7.53147 0.666626 0.666504 7.53159 0.666504 16C0.666504 24.4683 7.53147 31.3333 15.9998 31.3333Z" stroke="#CCCCCC" stroke-width="1.33333"/>
</g>
</g>
</g>
</g>
<defs>
<clipPath id="clip0_478_1254">
<rect width="32" height="32" fill="white"/>
</clipPath>
</defs>
</svg>
