<svg width="23" height="21" viewBox="0 0 23 21" fill="none" xmlns="http://www.w3.org/2000/svg">
<path id="Vector" d="M14.6364 0H5.22727C4.35955 0 3.61727 0.525 3.30364 1.281L0.146364 8.6835C0.0522727 8.925 0 9.177 0 9.45V11.55C0 12.705 0.940909 13.65 2.09091 13.65H8.68773L7.69454 18.4485L7.66318 18.7845C7.66318 19.215 7.84091 19.614 8.12318 19.8975L9.23136 21L16.1209 14.0805C16.4973 13.7025 16.7273 13.1775 16.7273 12.6V2.1C16.7273 0.945 15.7864 0 14.6364 0ZM18.8182 0V12.6H23V0H18.8182Z" fill="white"/>
</svg>
