<svg width="24" height="24" viewBox="0 0 24 24" fill="none" xmlns="http://www.w3.org/2000/svg">
<g id="image">
<path id="Vector" d="M10.5 2.25C12.0713 2.24981 13.61 2.69834 14.935 3.54284C16.2601 4.38734 17.3164 5.59268 17.9798 7.01708C18.6431 8.44149 18.8859 10.0257 18.6796 11.5834C18.4732 13.1411 17.8264 14.6074 16.815 15.81L20.823 19.818C20.9572 19.9518 21.0358 20.1315 21.0429 20.3209C21.05 20.5103 20.9852 20.6953 20.8614 20.8388C20.7376 20.9824 20.5641 21.0737 20.3758 21.0945C20.1874 21.1153 19.9981 21.0641 19.846 20.951L19.762 20.878L15.748 16.866C14.727 17.7076 13.5185 18.2913 12.2245 18.5679C10.9305 18.8444 9.58898 18.8056 8.31313 18.4547C7.03727 18.1039 5.86453 17.4513 4.89384 16.5521C3.92315 15.6529 3.183 14.5333 2.73584 13.288C2.28868 12.0426 2.14764 10.708 2.32461 9.39663C2.50157 8.08531 2.99136 6.8358 3.75264 5.75352C4.51392 4.67124 5.52436 3.78796 6.6987 3.17819C7.87303 2.56843 9.17681 2.25008 10.5 2.25ZM10.5 3.75C9.61359 3.75 8.73585 3.92459 7.9169 4.26381C7.09796 4.60303 6.35384 5.10023 5.72705 5.72703C5.10025 6.35382 4.60305 7.09794 4.26383 7.91689C3.92461 8.73583 3.75002 9.61358 3.75002 10.5C3.75002 11.3864 3.92461 12.2642 4.26383 13.0831C4.60305 13.9021 5.10025 14.6462 5.72705 15.273C6.35384 15.8998 7.09796 16.397 7.9169 16.7362C8.73585 17.0754 9.61359 17.25 10.5 17.25C12.2902 17.25 14.0071 16.5388 15.273 15.273C16.5389 14.0071 17.25 12.2902 17.25 10.5C17.25 8.70979 16.5389 6.9929 15.273 5.72703C14.0071 4.46116 12.2902 3.75 10.5 3.75Z" fill="#333333"/>
</g>
</svg>
